<svg width="11" height="14" viewBox="0 0 11 14" fill="none" xmlns="http://www.w3.org/2000/svg">
<path d="M3.78667 7.79333L5.33333 6.62L6.87333 7.79333L6.28667 5.89333L7.83333 4.66667H5.94L5.33333 2.79333L4.72667 4.66667H2.83333L4.37333 5.89333L3.78667 7.79333ZM10.6667 5.33333C10.6667 2.38667 8.28 0 5.33333 0C2.38667 0 0 2.38667 0 5.33333C0 6.68667 0.506667 7.91333 1.33333 8.85333V14L5.33333 12.6667L9.33333 14V8.85333C10.16 7.91333 10.6667 6.68667 10.6667 5.33333ZM5.33333 1.33333C7.54 1.33333 9.33333 3.12667 9.33333 5.33333C9.33333 7.54 7.54 9.33333 5.33333 9.33333C3.12667 9.33333 1.33333 7.54 1.33333 5.33333C1.33333 3.12667 3.12667 1.33333 5.33333 1.33333ZM5.33333 11.3333L2.66667 12.0133V9.94667C3.45333 10.4 4.36 10.6667 5.33333 10.6667C6.30667 10.6667 7.21333 10.4 8 9.94667V12.0133L5.33333 11.3333Z" fill="#28272A"/>
</svg>
