<svg width="13" height="14" viewBox="0 0 13 14" fill="none" xmlns="http://www.w3.org/2000/svg">
<path d="M6 0L2.33333 6H9.66667L6 0ZM6 2.56L7.28667 4.66667H4.70667L6 2.56ZM9.66667 7.33333C8.00667 7.33333 6.66667 8.67333 6.66667 10.3333C6.66667 11.9933 8.00667 13.3333 9.66667 13.3333C11.3267 13.3333 12.6667 11.9933 12.6667 10.3333C12.6667 8.67333 11.3267 7.33333 9.66667 7.33333ZM9.66667 12C8.74667 12 8 11.2533 8 10.3333C8 9.41333 8.74667 8.66667 9.66667 8.66667C10.5867 8.66667 11.3333 9.41333 11.3333 10.3333C11.3333 11.2533 10.5867 12 9.66667 12ZM0 13H5.33333V7.66667H0V13ZM1.33333 9H4V11.6667H1.33333V9Z" fill="#28272A"/>
</svg>
