<svg width="14" height="12" viewBox="0 0 14 12" fill="none" xmlns="http://www.w3.org/2000/svg">
<path d="M13.2631 3.92667L12.5631 1.01333C12.4164 0.413333 11.8964 0 11.2898 0H2.02976C1.42976 0 0.90309 0.42 0.76309 1.01333L0.0630903 3.92667C-0.0969097 4.60667 0.0497571 5.3 0.476424 5.84667C0.529757 5.92 0.60309 5.97333 0.66309 6.04V10.6667C0.66309 11.4 1.26309 12 1.99642 12H11.3298C12.0631 12 12.6631 11.4 12.6631 10.6667V6.04C12.7231 5.98 12.7964 5.92 12.8498 5.85333C13.2764 5.30667 13.4298 4.60667 13.2631 3.92667ZM11.2698 1.32667L11.9698 4.24C12.0364 4.52 11.9764 4.8 11.8031 5.02C11.7098 5.14 11.5098 5.33333 11.1764 5.33333C10.7698 5.33333 10.4164 5.00667 10.3698 4.57333L9.98309 1.33333L11.2698 1.32667ZM7.32976 1.33333H8.63642L8.99642 4.34667C9.02976 4.60667 8.94976 4.86667 8.77642 5.06C8.62976 5.23333 8.41642 5.33333 8.14309 5.33333C7.69642 5.33333 7.32976 4.94 7.32976 4.46V1.33333ZM4.32309 4.34667L4.68976 1.33333H5.99642V4.46C5.99642 4.94 5.62976 5.33333 5.13642 5.33333C4.90976 5.33333 4.70309 5.23333 4.54309 5.06C4.37642 4.86667 4.29642 4.60667 4.32309 4.34667ZM1.35642 4.24L2.02976 1.33333H3.34309L2.95642 4.57333C2.90309 5.00667 2.55642 5.33333 2.14976 5.33333C1.82309 5.33333 1.61642 5.14 1.52976 5.02C1.34976 4.80667 1.28976 4.52 1.35642 4.24ZM1.99642 10.6667V6.64667C2.04976 6.65333 2.09642 6.66667 2.14976 6.66667C2.72976 6.66667 3.25642 6.42667 3.64309 6.03333C4.04309 6.43333 4.57642 6.66667 5.18309 6.66667C5.76309 6.66667 6.28309 6.42667 6.66976 6.04667C7.06309 6.42667 7.59642 6.66667 8.19642 6.66667C8.75642 6.66667 9.28976 6.43333 9.68976 6.03333C10.0764 6.42667 10.6031 6.66667 11.1831 6.66667C11.2364 6.66667 11.2831 6.65333 11.3364 6.64667V10.6667H1.99642Z" fill="#28272A"/>
</svg>
